<svg xmlns="http://www.w3.org/2000/svg" viewBox="0 0 400 400" role="img" aria-label="مشاتي السعودية">
<circle cx="200.0" cy="200.0" r="46" fill="none" stroke="#C8102E" stroke-width="3"/>
<line x1="215.7" y1="128.5" x2="239.4" y2="138.3" stroke="#C8102E" stroke-width="2" stroke-linecap="round"/>
<line x1="213.8" y1="112.1" x2="232.1" y2="99.0" stroke="#C8102E" stroke-width="2" stroke-linecap="round"/>
<line x1="252.4" y1="128.1" x2="248.7" y2="105.9" stroke="#C8102E" stroke-width="2" stroke-linecap="round"/>
<line x1="234.1" y1="77.0" x2="211.9" y2="54.2" stroke="#C8102E" stroke-width="2" stroke-linecap="round"/>
<line x1="262.9" y1="88.9" x2="294.7" y2="88.5" stroke="#C8102E" stroke-width="2" stroke-linecap="round"/>
<line x1="215.7" y1="48.5" x2="296.0" y2="81.8" stroke="#C8102E" stroke-width="2" stroke-linecap="round"/>
<line x1="261.7" y1="160.6" x2="271.5" y2="184.3" stroke="#C8102E" stroke-width="2" stroke-linecap="round"/>
<line x1="271.9" y1="147.6" x2="294.1" y2="151.3" stroke="#C8102E" stroke-width="2" stroke-linecap="round"/>
<line x1="287.9" y1="186.2" x2="301.0" y2="167.9" stroke="#C8102E" stroke-width="2" stroke-linecap="round"/>
<line x1="311.1" y1="137.1" x2="311.5" y2="105.3" stroke="#C8102E" stroke-width="2" stroke-linecap="round"/>
<line x1="323.0" y1="165.9" x2="345.8" y2="188.1" stroke="#C8102E" stroke-width="2" stroke-linecap="round"/>
<line x1="318.2" y1="104.0" x2="351.5" y2="184.3" stroke="#C8102E" stroke-width="2" stroke-linecap="round"/>
<line x1="271.5" y1="215.7" x2="261.7" y2="239.4" stroke="#C8102E" stroke-width="2" stroke-linecap="round"/>
<line x1="287.9" y1="213.8" x2="301.0" y2="232.1" stroke="#C8102E" stroke-width="2" stroke-linecap="round"/>
<line x1="271.9" y1="252.4" x2="294.1" y2="248.7" stroke="#C8102E" stroke-width="2" stroke-linecap="round"/>
<line x1="323.0" y1="234.1" x2="345.8" y2="211.9" stroke="#C8102E" stroke-width="2" stroke-linecap="round"/>
<line x1="311.1" y1="262.9" x2="311.5" y2="294.7" stroke="#C8102E" stroke-width="2" stroke-linecap="round"/>
<line x1="351.5" y1="215.7" x2="318.2" y2="296.0" stroke="#C8102E" stroke-width="2" stroke-linecap="round"/>
<line x1="239.4" y1="261.7" x2="215.7" y2="271.5" stroke="#C8102E" stroke-width="2" stroke-linecap="round"/>
<line x1="252.4" y1="271.9" x2="248.7" y2="294.1" stroke="#C8102E" stroke-width="2" stroke-linecap="round"/>
<line x1="213.8" y1="287.9" x2="232.1" y2="301.0" stroke="#C8102E" stroke-width="2" stroke-linecap="round"/>
<line x1="262.9" y1="311.1" x2="294.7" y2="311.5" stroke="#C8102E" stroke-width="2" stroke-linecap="round"/>
<line x1="234.1" y1="323.0" x2="211.9" y2="345.8" stroke="#C8102E" stroke-width="2" stroke-linecap="round"/>
<line x1="296.0" y1="318.2" x2="215.7" y2="351.5" stroke="#C8102E" stroke-width="2" stroke-linecap="round"/>
<line x1="184.3" y1="271.5" x2="160.6" y2="261.7" stroke="#C8102E" stroke-width="2" stroke-linecap="round"/>
<line x1="186.2" y1="287.9" x2="167.9" y2="301.0" stroke="#C8102E" stroke-width="2" stroke-linecap="round"/>
<line x1="147.6" y1="271.9" x2="151.3" y2="294.1" stroke="#C8102E" stroke-width="2" stroke-linecap="round"/>
<line x1="165.9" y1="323.0" x2="188.1" y2="345.8" stroke="#C8102E" stroke-width="2" stroke-linecap="round"/>
<line x1="137.1" y1="311.1" x2="105.3" y2="311.5" stroke="#C8102E" stroke-width="2" stroke-linecap="round"/>
<line x1="184.3" y1="351.5" x2="104.0" y2="318.2" stroke="#C8102E" stroke-width="2" stroke-linecap="round"/>
<line x1="138.3" y1="239.4" x2="128.5" y2="215.7" stroke="#C8102E" stroke-width="2" stroke-linecap="round"/>
<line x1="128.1" y1="252.4" x2="105.9" y2="248.7" stroke="#C8102E" stroke-width="2" stroke-linecap="round"/>
<line x1="112.1" y1="213.8" x2="99.0" y2="232.1" stroke="#C8102E" stroke-width="2" stroke-linecap="round"/>
<line x1="88.9" y1="262.9" x2="88.5" y2="294.7" stroke="#C8102E" stroke-width="2" stroke-linecap="round"/>
<line x1="77.0" y1="234.1" x2="54.2" y2="211.9" stroke="#C8102E" stroke-width="2" stroke-linecap="round"/>
<line x1="81.8" y1="296.0" x2="48.5" y2="215.7" stroke="#C8102E" stroke-width="2" stroke-linecap="round"/>
<line x1="128.5" y1="184.3" x2="138.3" y2="160.6" stroke="#C8102E" stroke-width="2" stroke-linecap="round"/>
<line x1="112.1" y1="186.2" x2="99.0" y2="167.9" stroke="#C8102E" stroke-width="2" stroke-linecap="round"/>
<line x1="128.1" y1="147.6" x2="105.9" y2="151.3" stroke="#C8102E" stroke-width="2" stroke-linecap="round"/>
<line x1="77.0" y1="165.9" x2="54.2" y2="188.1" stroke="#C8102E" stroke-width="2" stroke-linecap="round"/>
<line x1="88.9" y1="137.1" x2="88.5" y2="105.3" stroke="#C8102E" stroke-width="2" stroke-linecap="round"/>
<line x1="48.5" y1="184.3" x2="81.8" y2="104.0" stroke="#C8102E" stroke-width="2" stroke-linecap="round"/>
<line x1="160.6" y1="138.3" x2="184.3" y2="128.5" stroke="#C8102E" stroke-width="2" stroke-linecap="round"/>
<line x1="147.6" y1="128.1" x2="151.3" y2="105.9" stroke="#C8102E" stroke-width="2" stroke-linecap="round"/>
<line x1="186.2" y1="112.1" x2="167.9" y2="99.0" stroke="#C8102E" stroke-width="2" stroke-linecap="round"/>
<line x1="137.1" y1="88.9" x2="105.3" y2="88.5" stroke="#C8102E" stroke-width="2" stroke-linecap="round"/>
<line x1="165.9" y1="77.0" x2="188.1" y2="54.2" stroke="#C8102E" stroke-width="2" stroke-linecap="round"/>
<line x1="104.0" y1="81.8" x2="184.3" y2="48.5" stroke="#C8102E" stroke-width="2" stroke-linecap="round"/>
<circle cx="200.0" cy="122.0" r="12" fill="none" stroke="#C8102E" stroke-width="7"/>
<circle cx="255.2" cy="144.8" r="12" fill="none" stroke="#C8102E" stroke-width="7"/>
<circle cx="278.0" cy="200.0" r="12" fill="none" stroke="#C8102E" stroke-width="7"/>
<circle cx="255.2" cy="255.2" r="12" fill="none" stroke="#C8102E" stroke-width="7"/>
<circle cx="200.0" cy="278.0" r="12" fill="none" stroke="#C8102E" stroke-width="7"/>
<circle cx="144.8" cy="255.2" r="12" fill="none" stroke="#C8102E" stroke-width="7"/>
<circle cx="122.0" cy="200.0" r="12" fill="none" stroke="#C8102E" stroke-width="7"/>
<circle cx="144.8" cy="144.8" r="12" fill="none" stroke="#C8102E" stroke-width="7"/>
<circle cx="245.9" cy="89.1" r="12" fill="none" stroke="#C8102E" stroke-width="7"/>
<circle cx="310.9" cy="154.1" r="12" fill="none" stroke="#C8102E" stroke-width="7"/>
<circle cx="310.9" cy="245.9" r="12" fill="none" stroke="#C8102E" stroke-width="7"/>
<circle cx="245.9" cy="310.9" r="12" fill="none" stroke="#C8102E" stroke-width="7"/>
<circle cx="154.1" cy="310.9" r="12" fill="none" stroke="#C8102E" stroke-width="7"/>
<circle cx="89.1" cy="245.9" r="12" fill="none" stroke="#C8102E" stroke-width="7"/>
<circle cx="89.1" cy="154.1" r="12" fill="none" stroke="#C8102E" stroke-width="7"/>
<circle cx="154.1" cy="89.1" r="12" fill="none" stroke="#C8102E" stroke-width="7"/>
<circle cx="200.0" cy="42.0" r="12" fill="none" stroke="#C8102E" stroke-width="7"/>
<circle cx="311.7" cy="88.3" r="12" fill="none" stroke="#C8102E" stroke-width="7"/>
<circle cx="358.0" cy="200.0" r="12" fill="none" stroke="#C8102E" stroke-width="7"/>
<circle cx="311.7" cy="311.7" r="12" fill="none" stroke="#C8102E" stroke-width="7"/>
<circle cx="200.0" cy="358.0" r="12" fill="none" stroke="#C8102E" stroke-width="7"/>
<circle cx="88.3" cy="311.7" r="12" fill="none" stroke="#C8102E" stroke-width="7"/>
<circle cx="42.0" cy="200.0" r="12" fill="none" stroke="#C8102E" stroke-width="7"/>
<circle cx="88.3" cy="88.3" r="12" fill="none" stroke="#C8102E" stroke-width="7"/>
</svg>